<?xml version="1.0" encoding="UTF-8" standalone="no"?>
<!-- Created with Inkscape (http://www.inkscape.org/) -->

<svg
   xmlns:dc="http://purl.org/dc/elements/1.1/"
   xmlns:cc="http://creativecommons.org/ns#"
   xmlns:rdf="http://www.w3.org/1999/02/22-rdf-syntax-ns#"
   xmlns:svg="http://www.w3.org/2000/svg"
   xmlns="http://www.w3.org/2000/svg"
   xmlns:xlink="http://www.w3.org/1999/xlink"
   xmlns:sodipodi="http://sodipodi.sourceforge.net/DTD/sodipodi-0.dtd"
   xmlns:inkscape="http://www.inkscape.org/namespaces/inkscape"
   width="512"
   height="512"
   id="svg2985"
   version="1.1"
   inkscape:version="0.48.5 r10040"
   sodipodi:docname="Nouveau document 6">
  <defs
     id="defs2987" />
  <sodipodi:namedview
     id="base"
     pagecolor="#ffffff"
     bordercolor="#666666"
     borderopacity="1.0"
     inkscape:pageopacity="1"
     inkscape:pageshadow="2"
     inkscape:zoom="0.97851562"
     inkscape:cx="256"
     inkscape:cy="296.87824"
     inkscape:document-units="px"
     inkscape:current-layer="layer1"
     showgrid="false"
     inkscape:window-width="1024"
     inkscape:window-height="721"
     inkscape:window-x="-4"
     inkscape:window-y="-4"
     inkscape:window-maximized="1"
     width="512px" />
  <metadata
     id="metadata2990">
    <rdf:RDF>
      <cc:Work
         rdf:about="">
        <dc:format>image/svg+xml</dc:format>
        <dc:type
           rdf:resource="http://purl.org/dc/dcmitype/StillImage" />
        <dc:title></dc:title>
      </cc:Work>
    </rdf:RDF>
  </metadata>
  <g
     inkscape:label="Calque 1"
     inkscape:groupmode="layer"
     id="layer1"
     transform="translate(0,-540.36216)">
    <image
       y="540.06476"
       x="1.4286907"
       id="image3082"
       xlink:href="file:///C:/Users/Houssen/Desktop/fb_icon_325x325.png"
       height="513.77228"
       width="510.70642" />
    <path
       style="fill:#ffffff;stroke:none"
       d="m 275.54899,1052.861 -2.23342,-196.59609 -63.09382,0 0,-76.39203 65.32724,-1.12231 c 0,0 -3.37683,-75.78117 7.81695,-107.28525 6.88063,-19.36553 23.09435,-39.06443 41.87643,-47.18316 14.76559,-6.38246 50.81009,-7.30209 50.81009,-7.30209 l 58.627,5.0553 0.55835,69.65195 c 0,0 -48.02822,-8.94791 -68.11901,3.93082 -8.55697,5.48608 -9.75213,15.33986 -11.74184,30.5646 -2.52392,19.31343 2.24984,50.88299 2.24984,50.88299 l 72.58584,1.68484 -7.25858,76.95317 -68.67738,1.12233 -0.55835,196.03493 z"
       id="path3085"
       inkscape:connector-curvature="0"
       sodipodi:nodetypes="cccccsscccsscccccc" />
  </g>
</svg>
